<?xml version="1.0" encoding="UTF-8"?><svg xmlns="http://www.w3.org/2000/svg" viewBox="0 0 1072.58 1080"><defs><style>.cls-1{fill:#d1ae76;}.cls-2,.cls-3,.cls-4{fill:none;stroke:#d1ae76;stroke-miterlimit:10;stroke-width:16px;}.cls-5{fill:#273248;}.cls-3{stroke-dasharray:0 0 23.14 23.14;}.cls-4{stroke-dasharray:0 0 24.01 24.01;}</style></defs><g id="Layer_8_copy_2"><path class="cls-1" d="M957.25,313.6c.11-.84,.28-1.64,.52-2.41,.13-.29,.27-.58,.4-.87,.19-.4,.32-.8,.41-1.2,.49-1,1.08-1.98,1.8-2.96,1.3-1.77,.66-4.59-.78-6.06-4.53-4.61-9.98-7.91-16.09-9.63-11.01-17.38-23.13-34.01-36.27-49.78-9.79-15.68-21.45-30.12-34.68-43-7.26-8.61-15.59-16.22-24.85-22.61-.06-4.3-.3-8.59-.77-12.86l.08-2.19c4.9-24.49-.16-49.99-5.32-74.22-.11-.53-.32-.98-.57-1.39-.01-.15-.02-.31-.04-.46-1.26-15.01-1.24-35.94-11.84-48.13-.73-2.84-1.55-5.65-2.47-8.44-.79-3-1.89-5.94-3.31-8.82-1.66-3.38-6.23-2.84-8.36-.51-.26-.15-.51-.32-.77-.46-3.61-2.01-8.45,1.47-7.56,5.26-19.02,16.6-38.03,33.2-57.05,49.79-2.98,1.32-5.95,2.65-8.93,3.97-9.24,2.39-18.11,6.02-26.4,10.79-6.48,2.27-12.96,4.53-19.43,6.8-49.35-17-102.38-26.25-157.6-26.25-93.65,0-181.01,26.58-254.81,72.53-5.47-3.61-11.21-6.81-17.26-9.47-2.57-1.13-5.17-2.19-7.81-3.16-.39-.81-1.05-1.54-2.04-2.1-8.95-5-18.33-9.11-28.07-12.34-2.91-.97-6.59,1.66-6.33,4.82,.16,1.9,.35,3.8,.57,5.69-.13,2.54-.26,5.09-.39,7.63-.74,.58-1.31,1.42-1.55,2.54-1.48,7-1.58,13.93-.35,20.69-.6,7.15,.16,14.29,2.39,21.28,.99,3.12,3.89,4.06,6.32,3.21,.04,.21,.07,.42,.11,.63C124.36,266.78,58.46,396.54,58.46,541.52c0,261.54,214.42,473.56,478.92,473.56s478.92-212.02,478.92-473.56c0-82.63-21.41-160.31-59.04-227.92ZM780.12,59.98c-.45,.18-.89,.38-1.33,.56l1.7-1.48c-.13,.3-.26,.61-.37,.92Z"/></g><g id="Layer_9"><g><path class="cls-2" d="M857.56,139.35c3.14,2.48,6.24,5,9.32,7.55"/><path class="cls-4" d="M884.99,162.66c103.29,94.14,168.11,229.76,168.11,380.53,0,284.27-230.44,514.71-514.71,514.71S23.68,827.45,23.68,543.18c0-154.89,68.42-293.8,176.68-388.16"/><path class="cls-2" d="M209.5,147.24c3.07-2.56,6.18-5.08,9.31-7.56"/></g><g><path class="cls-2" d="M249.44,117.18c3.31-2.25,6.64-4.46,10-6.63"/><path class="cls-3" d="M279.15,98.43C355.28,53.96,443.86,28.47,538.39,28.47c61.79,0,121.04,10.89,175.93,30.85"/><path class="cls-2" d="M725.15,63.4c3.73,1.45,7.44,2.95,11.13,4.49"/></g></g><g id="Layer_2_copy_4"><g><path class="cls-5" d="M805.74,147.42l13.16,7.77,2.56-15.07c10.88-63.91,6.31-78.35-5.93-82.63,0,0-15.45,2.84-23.14,9.7-2.85,2.54-34.3,26.26-47.23,32.76l-21.66,10.9,22.75,8.38c20.68,7.62,40.69,17.1,59.48,28.19Z"/><path class="cls-5" d="M281.25,236.98l7.2,14.82,10.42-12.76c12.19-14.93,25.86-29.25,40.61-42.56l11.51-10.38-13.9-6.87c-11.69-5.77-23.63-11.83-35.49-18-2.85-1.48-5.41-2.82-7.72-4.03-19.45-10.18-25.32-13.26-33.04-7.92-10.11,6.99-5.96,22.05-4.19,28.48,3.66,13.28,11.71,32.65,24.6,59.21Z"/><path class="cls-5" d="M986.74,352.31c.12-1.74,.09-3.44-.04-4.66-1.06-10.01-5.65-23.77-11.86-35.92,2.86-3.13,5.28-5.93,5.64-6.42l4.21-6.32c1.2-1.61,3.42-8.39,1.41-8.36l-7.79,.09c-.17,0-.33-.01-.5-.05-2.04-.41-14.84-3.4-23.4-14.21-11.38-19.07-44.44-70.78-89.83-109.94-.56-17.94-3.52-93.11-15.07-131.6-6.2-20.66-14.71-31.92-26.02-34.42-10.93-2.41-18.8,4.63-20.92,6.79-75.36,69.76-121.8,70.78-127.58,70.58-15.87-4.82-32.16-8.87-48.46-12.03-15.49-3.01-31.34-5.29-47.1-6.77-15.29-1.44-30.87-2.17-46.31-2.17-85.59,0-169.57,22.46-243.26,64.98l-46.4-18.51c-.32-.13-.62-.27-.93-.43-4.35-2.3-17.52-8.08-28.35-.5-13.73,9.6-11.26,31.43-8.21,47.01,2.01,10.26,4.12,19.47,6.35,27.98C110.39,266.64,50.42,393.46,46.07,528.45h-.28c0,.86,.02,2.77,.14,5.45-.07,3.44-.14,6.89-.14,10.34,0,467.65,592.94,663.09,875.36,296.27,125.71-134.52,137.65-432.02,65.59-488.2Zm-393.6,86.13c.21,4.4,1.56,8.36,3.9,11.93-13.6-.32-27.39-.53-41.35-.49l55.52-57.25,.85-1c2.07-2.71,21.09-26.06,51.56-11.08,38.09,18.72,61.39,36.14,61.61,36.31l.66,.53,.9,.44s4.92,2.66,5.09,6.86c.11,2.61-1.47,11.89-24.18,27.73-5.94,.1-11.94,.14-18,.12,1.06-1.62,2.14-3.41,3.22-5.42,41.55-77.2-102.11-56.89-99.78-8.68Zm-45.21-43.12c-50.75,101.06-187.87,49.22-182.19-30.32,4.77-66.72,139.51-112.77,180.56-66.4,25.33,28.62,12.15,75.78,1.63,96.72Zm293.76-91.81c-25.09,144.7-199.99,34.63-183.63-29.27,13.57-52.99,206.24-101.12,183.63,29.27ZM237.6,123.83c17.52,6.75,49.11,19.44,49.11,19.44,38.87,16.59,84.94,11.49,110.17,6.21,1.29-.27,2.39-.67,3.35-1.16,14.66-3.48,30.52-13.76,41.44-18.68,36.32-16.35,74.95-27.04,114.83-31.76,27.98-3.31,56.26-3.67,84.06-1.04,2.61,.25,6,.37,9.94,.52,6.52,.25,14.64,.55,21.07,1.51l.03-.18h.11c2.26,.3,56.5,6.21,145.41-76.19l.22-.1,.42-.53c.41-.37,6.27,1.34,11.6,19.09,9.94,33.13,18.89,96.61,17.06,120.55l-11.19,4.84c46.33,36.41,85.11,95.75,98.43,117.71,.41,.68,1.07,1.71,1.85,2.84,5.21,9.57,11.62,11.39,18.72,14.72,1.01,.48,1.49,1.53,1.35,2.53-2.38,1.89-3.04,5.24-1.48,7.89,6.02,10.17,13.52,22.96,14.03,31.67-14.63-2.68-31.68,2.73-50.98,18.25,13.14-77.14-28.88-104.47-70.63-134.03-15.19-17.39-39.61-26.15-66.56-28.02C470.67,127.46,175.44,340.19,300.01,503.11c-15.15,6.27-41.38,17.35-70.32,30.61-50.71-81.94,25.14-223.58,49.77-270.52l-8.74,4.71c-.64-.64-1.29-1.47-1.79-2.6-2.16-4.91-5.86-13.31-7.86-17.79-15.52-34.85-25.77-57.87-34.44-102.12-.94-4.8-1.47-8.74-1.74-11.97-.56-6.92,6.22-12.09,12.7-9.59ZM83.87,419.2c43.54,1.76,79.18,14.59,106.18,29.39-2.42,32.2,2.49,64.7,20.37,94.11-23.82,11.29-48.21,23.6-68.87,35.6l-.54,.34c-9.82,6.51-40.97,22.52-54.87,11.14-14.03-11.48-18.35-41.08-19.15-56.38,.9-39,6.64-77.32,16.89-114.19ZM218.95,199.72c6.49,19.51,13.98,36.34,22.89,56.35,1.99,4.46,4.05,9.1,6.2,13.98,.65,1.47,1.03,3.2,1.39,4.81-19.95-14.8-44.63-26.38-72.7-31.32,13.02-15.42,27.12-30.05,42.21-43.82Zm-75.44,603.54c60.4-5.13,236.7-37.18,262.17-233.46,3.43-26.4,5.33-61.53,3.11-83.65,45.64-10.93,90.85-14.47,134.81-15.06,42.23,217.49-31.8,386.22-142.28,491.53-13.48,12.85-33.31,16.56-50.49,9.35-82.77-34.74-155.98-92.31-207.32-168.7Zm525.24,188.22c101.8-175.42,99.69-367.67,44.1-517.83,40.62-.88,78.68-5.14,113.26-17.8,47.68,67.51,114.82,201.86,69.43,382.64l.27,.07c-63.85,78.46-143.09,128.28-227.06,152.92Z"/></g></g><g id="Layer_7_copy_2"><circle class="cls-5" cx="498.4" cy="404.24" r="14.74"/><circle class="cls-5" cx="751.02" cy="345.3" r="14.74"/></g></svg>